<svg width="857" height="70" viewBox="0 0 857 70" fill="none" xmlns="http://www.w3.org/2000/svg">
<g clip-path="url(#clip0_18_449)">
<path d="M429.778 43.8965C429.865 44.344 430.522 44.8341 432.054 45.3668C438.095 47.4551 446.762 48.1583 453.941 48.2648C460.07 48.3501 469.394 47.6043 473.509 45.0898C478.368 42.1279 470.05 40.4871 465.104 40.1248C455.649 39.4003 446.018 40.6575 436.782 41.5312C433.674 41.8082 429.559 42.6819 429.778 43.8965Z" fill="#FFE9EE"/>
<path d="M433.849 40.0396C436.957 39.8691 441.466 38.4627 443.523 37.8021C446.719 36.758 449.52 35.4368 451.972 33.9878C454.992 32.1979 458.012 28.5967 450.746 28.1492C446.5 27.8722 441.903 29.1507 438.883 30.5145C436.169 31.7717 427.195 39.4856 432.536 40.0396C432.886 40.0609 433.367 40.0609 433.849 40.0396Z" fill="#FFE9EE"/>
<path d="M421.198 43.8965C421.11 44.344 420.454 44.8341 418.922 45.3668C412.881 47.4551 404.213 48.1583 397.034 48.2648C390.906 48.3501 381.582 47.6043 377.467 45.0898C372.608 42.1279 380.926 40.4871 385.872 40.1248C395.327 39.4003 404.958 40.6575 414.194 41.5312C417.302 41.8082 421.417 42.6819 421.198 43.8965Z" fill="#FFE9EE"/>
<path d="M418.484 40.0183C423.781 39.4642 414.851 31.7504 412.137 30.4932C409.16 29.1294 404.564 27.8722 400.274 28.1279C393.007 28.5753 396.028 32.1979 399.048 33.9665C401.5 35.4155 404.301 36.7367 407.497 37.7808C409.51 38.4414 414.019 39.8478 417.171 40.0183C417.609 40.0609 418.046 40.0609 418.484 40.0183Z" fill="#FFE9EE"/>
<path d="M423.124 36.8432C423.299 36.9924 423.824 37.0137 424.394 36.9924C424.35 37.035 424.306 37.0776 424.262 37.1202C423.956 37.3973 427.764 37.2907 428.333 36.7793C431.66 33.6895 439.321 24.0578 429.559 22.0122C428.202 21.7352 426.714 21.7352 425.269 21.8417C422.292 22.0548 419.272 22.7367 417.827 24.0365C416.821 24.9741 416.777 26.0609 416.864 27.1263C417.302 30.8554 418.966 33.6682 423.124 36.8432Z" fill="#FFE9EE"/>
<path d="M333.299 44.8128C342.36 41.105 352.866 39.4003 359.213 34.9894C346.738 36.4171 334.656 38.207 322.53 39.8904C320.298 40.1888 317.54 40.3379 315.483 39.9757C309.267 38.9102 303.357 37.4825 297.185 36.2892C272.452 31.516 247.501 30.2162 222.112 35.2451C220.098 35.6499 216.684 35.3942 214.845 34.7763C203.551 30.962 192.476 27.0198 181.445 23.035C168.838 18.4749 156.8 13.5099 143.624 9.39728C133.512 6.24355 122.394 3.57992 111.012 1.68342C77.6122 -3.89953 31.5615 4.98632 12.1694 20.4566C-0.568976 30.621 -4.33358 41.2542 5.8221 52.5053C23.3757 71.9391 65.3116 75.2633 99.7621 62.1157C114.208 56.5967 117.622 48.755 114.514 39.997C111.45 31.3242 101.951 26.6149 84.0033 26.1035C72.5344 25.7839 61.5908 26.5723 55.5499 32.3044C49.4653 38.0579 53.5363 45.8356 64.3923 49.586C70.3457 51.6317 81.2455 51.4399 85.6667 48.8189C87.5053 47.7321 88.731 45.6652 87.8555 44.4506C87.1551 43.4916 82.8214 43.1294 80.0636 42.5754C78.7942 42.3197 77.3934 42.1918 76.0364 42C76.7368 41.2542 77.0432 40.2953 78.2251 39.8265C84.1784 37.376 93.8526 38.5267 97.1794 42.0213C100.419 45.3881 99.8497 48.7976 96.6979 52.1005C87.7241 61.519 62.1599 65.9726 41.8485 61.6895C22.4126 57.5769 10.506 45.8569 14.7959 35.032C20.3552 21.1598 46.4448 9.65298 77.3934 7.24507C92.014 6.09438 106.109 6.69104 118.804 10.4414C134.607 15.1081 150.19 20.0305 165.249 25.2725C178.644 29.9391 191.119 35.2238 204.164 40.2953C203.289 40.6149 202.063 41.0837 200.75 41.5099C187.88 45.5799 175.054 49.6713 162.053 53.656C157.851 54.9346 153.386 56.0639 148.79 57.0229C137.802 59.3455 126.683 61.4977 114.251 61.0929C114.208 61.4125 114.164 61.7321 114.12 62.0518C116.965 62.2862 119.767 62.6484 122.656 62.7337C135.613 63.0746 147.345 60.7093 158.289 57.8752C175.273 53.4643 191.601 48.4566 208.016 43.5556C211.387 42.5541 213.838 42.277 217.603 43.2359C244.787 50.1187 273.678 53.0168 303.576 49.2238C317.628 47.4338 329.359 47.9026 342.054 50.9924C351.071 53.1872 361.534 52.825 371.645 51.5678C359.126 49.3516 346.606 47.1568 333.299 44.8128ZM229.641 38.4201C255.643 33.8387 279.106 37.2055 303.664 42.3836C277.268 45.2816 253.323 44.2162 229.641 38.4201Z" fill="#FFE9EE"/>
<path d="M143.318 37.7595C145.331 39.1872 147.608 40.4232 151.635 39.8904C155.618 39.3577 157.238 37.8661 157.544 35.9909C157.676 35.2238 157.632 34.4353 157.632 34.2649C156.8 29.7687 153.386 26.4658 148.002 23.6743C140.472 19.7534 130.973 17.4095 120.249 16.3866C118.498 16.2162 115.696 16.898 114.645 17.6226C114.033 18.0487 115.521 19.4551 116.659 20.2009C118.673 21.5221 121.43 22.5662 123.4 23.8874C130.142 28.4901 136.708 33.1355 143.318 37.7595Z" fill="#FFE9EE"/>
<path d="M101.776 24.0579C102.607 25.1659 102.739 26.6789 104.358 27.2968C110.662 29.7047 115.521 32.5814 118.76 36.14C119.548 36.9924 120.336 38.0579 121.781 38.5267C124.232 39.3151 127.603 40.3379 129.835 40.0183C131.98 39.72 133.162 37.8235 134.563 36.7793C132.943 34.8402 132.199 33.3699 130.579 32.1766C125.151 28.1279 118.716 24.5266 108.342 23.5251C106.372 23.3547 104.008 23.8661 101.776 24.0579Z" fill="#FFE9EE"/>
<path d="M215.721 32.0061C216.115 32.4962 217.384 33.1568 218.128 33.1355C219.266 33.0929 221.017 32.5601 221.236 32.1126C223.075 27.8082 224.651 23.4825 226.314 19.1568C225.92 19.1142 225.526 19.0929 225.132 19.0502C225.045 18.5388 224.957 18.0061 224.826 17.4947C224.3 15.5556 222.9 13.8508 218.26 13.6804C213.269 13.4886 210.905 15.2359 210.599 17.2177C210.161 20.0091 210.38 22.8859 211.299 25.656C212 27.8295 214.057 29.9178 215.721 32.0061Z" fill="#FFE9EE"/>
<path d="M232.267 31.1537C233.406 31.516 236.207 31.5586 236.907 31.1751C241.723 28.5327 246.188 25.72 250.696 22.9498C251.178 22.6515 251.134 22.1187 251.309 21.7565C250.478 20.0518 248.376 19.583 245.268 20.1583C236.732 21.7139 233.274 25.379 230.079 29.0868C229.641 29.5769 231.042 30.7702 232.267 31.1537Z" fill="#FFE9EE"/>
<path d="M484.89 51.5464C495.002 52.8037 505.464 53.1659 514.481 50.9711C527.22 47.8813 538.908 47.4125 552.959 49.2024C582.857 53.0168 611.748 50.1187 638.932 43.2146C642.741 42.2557 645.148 42.5327 648.519 43.5343C664.978 48.414 681.262 53.4429 698.247 57.8539C709.19 60.688 720.922 63.0533 733.879 62.7123C736.725 62.6484 739.57 62.2648 742.415 62.0304C742.371 61.7108 742.328 61.3912 742.284 61.0715C729.808 61.4764 718.689 59.3242 707.746 57.0015C703.193 56.0426 698.684 54.9346 694.482 53.6347C681.481 49.6499 668.655 45.5586 655.785 41.4886C654.472 41.0837 653.247 40.5936 652.371 40.274C665.416 35.2024 677.892 29.9391 691.287 25.2511C706.301 20.0091 721.885 15.0868 737.731 10.4201C750.382 6.66972 764.521 6.07307 779.142 7.22375C810.091 9.65298 836.18 21.1385 841.696 35.0107C845.986 45.8356 834.079 57.5556 814.643 61.6682C794.376 65.9513 768.767 61.4764 759.794 52.0792C756.642 48.7763 756.073 45.3881 759.312 42C762.683 38.5053 772.313 37.3546 778.266 39.8052C779.405 40.274 779.755 41.2542 780.455 41.9787C779.098 42.1705 777.697 42.2983 776.428 42.554C773.67 43.1294 769.336 43.4703 768.636 44.4292C767.761 45.6225 768.986 47.7108 770.825 48.7976C775.246 51.4186 786.146 51.6104 792.099 49.5647C802.955 45.8143 807.026 38.0578 800.942 32.2831C794.901 26.5723 783.957 25.7626 772.488 26.0822C754.541 26.5936 745.085 31.3029 741.977 39.9757C738.869 48.7123 742.24 56.5753 756.729 62.0944C791.18 75.242 833.116 71.9178 850.67 52.484C860.825 41.2329 857.104 30.5997 844.322 20.4353C824.93 4.965 778.879 -3.92084 745.479 1.66211C734.098 3.55861 722.979 6.22223 712.867 9.37596C699.691 13.4886 687.653 18.4749 675.046 23.0137C664.015 26.9985 652.94 30.962 641.646 34.755C639.808 35.3729 636.393 35.6286 634.38 35.2238C608.991 30.1948 584.039 31.4947 559.307 36.2679C553.178 37.4399 547.225 38.8676 541.009 39.9543C538.908 40.3166 536.15 40.1674 533.961 39.8691C521.792 38.1857 509.71 36.3957 497.278 34.968C503.625 39.379 514.131 41.0837 523.193 44.7915C509.973 47.1568 497.453 49.3516 484.89 51.5464ZM552.915 42.3836C577.429 37.2268 600.892 33.8387 626.938 38.4201C603.256 44.2161 579.311 45.2816 552.915 42.3836Z" fill="#FFE9EE"/>
<path d="M713.261 37.7595C711.248 39.1872 708.971 40.4231 704.944 39.8904C700.961 39.3577 699.341 37.8661 699.035 35.9909C698.903 35.2238 698.947 34.4353 698.947 34.2648C699.779 29.7687 703.193 26.4658 708.577 23.6743C716.107 19.7534 725.606 17.4094 736.331 16.3866C738.082 16.2161 740.883 16.898 741.934 17.6225C742.547 18.0487 741.058 19.4551 739.92 20.2009C737.906 21.5221 735.149 22.5662 733.179 23.8874C726.438 28.4901 719.871 33.1355 713.261 37.7595Z" fill="#FFE9EE"/>
<path d="M754.803 24.0579C753.972 25.1659 753.84 26.6789 752.221 27.2968C745.917 29.7047 741.058 32.5814 737.819 36.14C737.031 36.9924 736.243 38.0579 734.798 38.5267C732.347 39.3151 728.976 40.3379 726.744 40.0183C724.599 39.72 723.417 37.8235 722.016 36.7793C723.636 34.8402 724.38 33.3699 726 32.1766C731.428 28.1279 737.863 24.5266 748.237 23.5251C750.207 23.3547 752.571 23.8661 754.803 24.0579Z" fill="#FFE9EE"/>
<path d="M640.858 32.0061C640.464 32.4962 639.195 33.1568 638.451 33.1355C637.313 33.0929 635.562 32.5601 635.343 32.1126C633.504 27.8082 631.928 23.4825 630.265 19.1568C630.659 19.1142 631.053 19.0929 631.447 19.0502C631.534 18.5388 631.622 18.0061 631.753 17.4947C632.279 15.5556 633.679 13.8508 638.319 13.6804C643.31 13.4886 645.674 15.2359 645.98 17.2177C646.418 20.0091 646.199 22.8859 645.28 25.656C644.579 27.8295 642.522 29.9178 640.858 32.0061Z" fill="#FFE9EE"/>
<path d="M624.312 31.1537C623.174 31.516 620.372 31.5586 619.672 31.1751C614.856 28.5327 610.391 25.72 605.883 22.9498C605.401 22.6515 605.445 22.1187 605.27 21.7565C606.101 20.0518 608.203 19.583 611.311 20.1583C619.847 21.7139 623.305 25.379 626.5 29.0868C626.938 29.5769 625.537 30.7702 624.312 31.1537Z" fill="#FFE9EE"/>
</g>
<defs>
<clipPath id="clip0_18_449">
<rect width="856.579" height="70" fill="white"/>
</clipPath>
</defs>
</svg>
